<svg width="512" height="478" viewBox="0 0 512 478" xmlns="http://www.w3.org/2000/svg"><g fill="none"><path d="M482.906 126.274c-12.981-23.559-31.38-44.576-54.686-62.467C381.884 28.239 320.722 8.65 256.001 8.65c-64.722 0-125.883 19.589-172.22 55.157-23.306 17.891-41.706 38.908-54.686 62.467-13.834 25.106-20.848 51.882-20.848 79.585 0 27.703 7.014 54.48 20.848 79.584 11.958 21.703 28.526 41.241 49.28 58.173L66.873 452.939c-1.199 11.39 10.415 19.784 20.855 15.074l145.731-65.754c7.453.53 14.972.809 22.541.809 64.721 0 125.883-19.589 172.218-55.157 23.306-17.891 41.706-38.908 54.686-62.467 13.833-25.106 20.848-51.882 20.848-79.585 0-27.703-7.013-54.479-20.846-79.585z" fill="#D6E9FF"/><path d="M391.394 299.939C355.563 327.445 307.48 342.592 256 342.592c-51.48 0-99.564-15.147-135.396-42.653-33.456-25.683-51.882-59.094-51.882-94.08s18.426-68.398 51.883-94.08c35.831-27.505 83.915-42.653 135.396-42.653 51.479 0 99.563 15.147 135.394 42.653 33.457 25.682 51.883 59.094 51.883 94.08s-18.426 68.397-51.884 94.08z" fill="#FFF"/><path d="M90.713 227.851c0-34.986 18.426-68.398 51.883-94.08 35.831-27.505 83.915-42.653 135.396-42.653 51.479 0 99.563 15.147 135.394 42.653a170.753 170.753 0 0 1 4.197 3.339c-7.287-9.038-16.041-17.542-26.188-25.33-35.831-27.505-83.915-42.653-135.394-42.653s-99.564 15.147-135.396 42.653c-33.457 25.682-51.883 59.093-51.883 94.08 0 33.491 16.895 65.533 47.686 90.741-16.74-20.767-25.695-44.376-25.695-68.75z" fill="#000" opacity=".1"/><path d="M69.712 347.131L58.671 452.07c-.875 8.323 2.651 16.218 9.433 21.12 4.041 2.92 8.727 4.411 13.47 4.411 3.217 0 6.462-.687 9.546-2.078l143.845-64.904c7.046.456 14.113.687 21.036.687 58.57 0 113.568-15.269 159.052-44.159a8.248 8.248 0 0 0-8.844-13.923c-42.835 27.207-94.777 41.588-150.209 41.588-7.215 0-14.601-.265-21.957-.787a8.21 8.21 0 0 0-3.976.709l-145.73 65.754c-3.138 1.416-5.641.007-6.571-.666-.929-.672-3.052-2.605-2.692-6.028l11.501-109.322a8.248 8.248 0 0 0-2.989-7.253c-19.945-16.271-35.849-35.032-47.271-55.763-13.154-23.872-19.823-49.309-19.823-75.605 0-26.296 6.669-51.733 19.823-75.605C48.744 107.689 66.402 87.534 88.8 70.341c44.906-34.467 104.284-53.45 167.2-53.45 62.916 0 122.294 18.983 167.198 53.451 22.398 17.193 40.057 37.347 52.484 59.905 13.155 23.872 19.824 49.309 19.824 75.605 0 26.296-6.669 51.732-19.823 75.605-10.671 19.364-25.278 37.043-43.415 52.544a8.247 8.247 0 0 0 10.717 12.539c19.65-16.795 35.512-36.014 47.143-57.123C504.641 263.079 512 234.964 512 205.853c0-29.111-7.358-57.226-21.871-83.565-13.534-24.562-32.674-46.441-56.889-65.029C385.473 20.591 322.528.398 256.001.398S126.528 20.591 78.76 57.259c-24.214 18.587-43.355 40.466-56.888 65.029C7.358 148.626 0 176.741 0 205.853c0 29.112 7.358 57.226 21.871 83.565 11.776 21.372 27.857 40.769 47.841 57.713z" fill="#9B9B9B"/><path d="M113.624 128.517a8.247 8.247 0 0 0-11.306-12.008c-27.373 25.772-41.842 56.667-41.842 89.344 0 37.608 19.571 73.342 55.108 100.622 37.263 28.605 87.13 44.357 140.416 44.357 53.285 0 103.152-15.753 140.415-44.357 35.538-27.28 55.108-63.014 55.108-100.622s-19.571-73.342-55.108-100.622C359.152 76.626 309.285 60.874 256 60.874c-46.816 0-90.38 11.865-125.982 34.312a8.246 8.246 0 1 0 8.797 13.951c32.965-20.784 73.487-31.77 117.186-31.77 49.674 0 95.974 14.542 130.373 40.947 31.377 24.087 48.657 55.176 48.657 87.539s-17.281 63.453-48.657 87.539c-34.398 26.406-80.699 40.947-130.373 40.947-49.674 0-95.976-14.542-130.374-40.947-31.377-24.086-48.657-55.174-48.657-87.538-.001-28.018 12.673-54.76 36.654-77.337z" fill="#9B9B9B"/><path d="M255.999 251.933c-11.235 0-21.929-3.655-27.912-9.538a8.245 8.245 0 0 0-11.661.097 8.246 8.246 0 0 0 .097 11.662c9.087 8.936 23.844 14.272 39.476 14.272 15.725 0 30.532-5.385 39.61-14.405a8.246 8.246 0 1 0-11.625-11.699c-5.965 5.927-16.689 9.611-27.985 9.611z" fill="#9B9B9B"/><circle fill="#9B9B9B" cx="214.061" cy="180.721" r="15.76"/><circle fill="#9B9B9B" cx="298.045" cy="180.721" r="15.76"/></g></svg>