<svg xmlns="http://www.w3.org/2000/svg" viewBox="-9 11 100 100" width="300" height="300"><path fill="#FAAE17" d="M84.4 61c0 24-19.4 43.4-43.4 43.4-15.4 0-28.9-8-36.6-20.1C.1 77.6-2.4 69.6-2.4 61-2.4 37 17 17.6 41 17.6c4.7 0 9.3.8 13.6 2.2 17.3 5.7 29.8 22 29.8 41.2z"/><path fill="#3E2E14" d="M32 87.1c2-3.2 9.8-13.7 17.1-.7.5.9 1.6 1.5 2.6 1.1 1.1-.6 1.1-1.7.6-3.2-.5-1.2-1.1-2.3-1.9-3.3-.7-.9-1.4-1.6-2.4-2.3-2.7-2.1-7-3.7-12.9-.5-1.7 1.2-3.1 2.4-4.5 4.2-.6.8-1.1 1.7-1.4 2.6-.3 1.4.2 2.2.8 2.5.5.6 1.5.3 2-.4z"/><circle fill="#3E2E14" cx="17.4" cy="65.3" r="4.6"/><circle fill="#3E2E14" cx="65.1" cy="65.3" r="4.6"/></svg>