<svg version="1.2" baseProfile="tiny" xmlns="http://www.w3.org/2000/svg" viewBox="0 0 100 100" width="300" height="300"><circle fill="#FBAE2F" cx="50" cy="50" r="43.4"/><path fill="#402E15" d="M20.5 43.1h-.3c-1-.2-1.6-1.1-1.4-2 .4-2.2 2.4-6.4 7.1-6.5 4.8-.2 6.9 3.8 7.4 5.9.2 1-.4 1.9-1.3 2.1-.9.2-1.9-.4-2.1-1.3-.2-.5-.9-3.4-3.9-3.3-3.1.1-3.8 3.5-3.8 3.6-.1.9-.9 1.5-1.7 1.5zm58.4-.3c-.9 0-1.6-.6-1.7-1.5-.1-.3-.7-3.3-3.6-3.3-3-.1-3.9 3.1-4 3.4-.2.9-1.2 1.5-2.1 1.3-.9-.2-1.5-1.2-1.3-2.1.5-2.2 2.7-6.2 7.5-6.1 4.8.1 6.7 4.2 7 6.3.2 1-.5 1.9-1.5 2h-.3zm-5.1 6.1c3.2 0 5.6 2.9 5.1 6.1-2.6 14.5-14.5 25.4-28.8 25.4S24 69.5 21.3 55c-.6-3.2 1.8-6.1 5.1-6.1 15.6 2.5 31.4 2.6 47.4 0z"/><path fill="#FFF" d="M72.9 58c-15.3 1.8-30.5 1.8-45.6 0-1.4 0-2.5-1.1-2.5-2.5s1.1-2.5 2.5-2.5c15.3 1.6 30.5 1.6 45.6 0 1.4 0 2.5 1.1 2.5 2.5S74.3 58 72.9 58z"/><path fill="#EE3431" d="M36.4 72.2s5.5-4.5 14.1-4.5 13.1 4.5 13.1 4.5-6.3 4.1-13.4 4.1-13.8-4.1-13.8-4.1z"/></svg>