<svg version="1.2" width="300" height="300" baseProfile="tiny" xmlns="http://www.w3.org/2000/svg" viewBox="0 0 100 100"><circle fill="#EE3430" cx="50" cy="50" r="43.4"/><path fill="#3D1413" d="M38.6 53.2c-.2-.2-8.4-2.3-8.4-2.3-1-.3-2.1.4-2.3 1.4-.3 1 .4 2.1 1.4 2.3l3.1.8c-.4.7-.7 1.6-.7 2.5 0 2.8 2.3 5.1 5.1 5.1s5.1-2.3 5.1-5.1c0-2.1-1.4-3.9-3.3-4.7zm21.3 0c.2-.2 8.4-2.3 8.4-2.3 1-.3 2.1.4 2.3 1.4.3 1-.4 2.1-1.4 2.3l-3.1.8c.4.7.7 1.6.7 2.5 0 2.8-2.3 5.1-5.1 5.1s-5.1-2.3-5.1-5.1c0-2.1 1.4-3.9 3.3-4.7zm-1.3 23.2c-5.8-2.2-11.8-2.3-17.9 0-1.3.5-2.8 0-3.4-1.3-.1-.3-.2-.7-.2-1 0-1 .6-1.9 1.5-2.3 7-3.6 14.8-4.8 22.4.2.7.5 1.2 1.2 1.2 2.1 0 .2 0 .5-.1.7-.4 1.5-2.1 2.2-3.5 1.6z"/></svg>